# xmcd
#
# Track frame offsets:
# 150
# 9516
# 21975
# 30337
# 43467
# 56648
# 65354
# 75184
# 84918
# 95156
#
# Disc length: 1477 seconds
#
#
# Revision: 0
# Processed by: cddbd v1.5.1PL0 Copyright (c) Steve Scherf et al.
# Submitted via: FreeRIP 2.90 
#
DISCID=7205c30a
DTITLE=The Ghost Rider Orchestra - The Greatesr Western Themes
DYEAR=1900
DGENRE=Country
TTITLE0=The Magnificent Seven
TTITLE1=For A Few Dollars More
TTITLE2=Bonanza
TTITLE3=High Noon
TTITLE4=The Good The Bad And The Ugly
TTITLE5=Shanandoah
TTITLE6=Ghost Riders In The Sky
TTITLE7=Streets of Lorado
TTITLE8=High Chaparral
TTITLE9=Once Upon A Time In The West
EXTD=
EXTT0=
EXTT1=
EXTT2=
EXTT3=
EXTT4=
EXTT5=
EXTT6=
EXTT7=
EXTT8=
EXTT9=
PLAYORDER=
